<?xml version="1.0"?>
<svg xmlns="http://www.w3.org/2000/svg" height="512px" viewBox="-32 0 512 512.00155" width="512px" class=""><g><path d="m429.144531 157.503906c-11.859375 0-22.859375 3.683594-31.960937 9.949219v-78.246094c0-18.433593-12.652344-34.367187-30.089844-37.886719-10.195312-2.042968-20.460938.210938-28.867188 5.875v-2.449218c0-50.796875-29.007812-54.746094-37.898437-54.746094-20.289063 0-36.769531 16.0625-37.71875 36.125-6.035156-3.507812-13.289063-5.566406-21.09375-5.566406-20.898437 0-37.898437 14.703125-37.898437 32.773437v42.390625c-5.605469-3.308594-12.023438-4.96875-18.792969-4.605468-17.878907.933593-31.886719 16.335937-31.886719 35.0625v43.300781l-.304688-.304688c-34.871093-34.878906-91.617187-34.871093-126.480468 0-34.871094 34.871094-34.871094 91.609375 0 126.476563l136.988281 136.988281c1.644531 1.644531 3.800781 2.464844 5.953125 2.464844s4.3125-.824219 5.957031-2.464844l3.152344-3.15625v53.019531c0 10.75 8.746094 19.496094 19.496094 19.496094h163.140625c10.75 0 19.496094-8.746094 19.496094-19.496094v-69.980468l15.875-46.042969h5.4375c25.796874 0 46.78125-20.984375 46.78125-46.78125v-152.90625c.007812-10.636719-8.648438-19.289063-19.285157-19.289063zm-128.8125-140.660156c18.320313 0 21.054688 23.746094 21.054688 37.902344v135.605468c-2.800781-3.898437-5.851563-7.667968-9.351563-11.171874-9.527344-9.527344-20.714844-16.355469-32.613281-20.679688v-95.167969c0-.421875-.128906-.8125-.144531-1.234375v-24.195312c-.003906-11.613282 9.441406-21.058594 21.054687-21.058594zm-58.8125 30.5625c10.941407 0 20.160157 6.722656 20.910157 14.882812v91.871094c-14.015626-2.144531-28.410157-.96875-41.96875 3.539063v-94.367188c0-8.632812 9.644531-15.925781 21.058593-15.925781zm-55.8125 70.53125c4.769531-.25 9.132813 1.394531 12.515625 4.597656 3.382813 3.214844 5.25 7.554688 5.25 12.222656v30.675782c-6.386718 3.757812-12.445312 8.273437-17.917968 13.746094l-15.773438 15.777343v-58.773437c.003906-9.601563 7.148438-17.785156 15.925781-18.246094zm-16.609375 306.839844-131.027344-131.03125c-28.300781-28.300782-28.300781-74.355469 0-102.660156 14.152344-14.148438 32.738282-21.226563 51.328126-21.226563 18.589843 0 37.179687 7.078125 51.328124 21.226563l22.417969 22.417968c3.15625 3.15625 8.75 3.15625 11.910157 0l22.414062-22.417968c28.300781-28.296876 74.355469-28.304688 102.660156 0 28.300782 28.300781 28.300782 74.359374 0 102.660156zm262.496094-95.078125c0 16.507812-13.433594 29.9375-29.941406 29.9375h-20.59375c-4.652344 0-8.421875 3.773437-8.421875 8.421875 0 3.769531 2.523437 6.847656 5.9375 7.921875l-14.617188 42.390625c-.304687.882812-.460937 1.808594-.460937 2.746094v71.390624c0 1.460938-1.1875 2.652344-2.652344 2.652344h-163.140625c-1.460937 0-2.652344-1.1875-2.652344-2.652344v-69.863281l116.984375-116.984375c20.347656-20.347656 28.730469-48.132812 25.332032-74.679687.523437-1.09375.867187-2.285157.867187-3.578125v-138.964844c0-6.34375 2.820313-12.285156 7.734375-16.308594 4.984375-4.082031 11.304688-5.617187 17.800781-4.292968 9.605469 1.9375 16.574219 10.925781 16.574219 21.371093v96.453125c-4.867188 8.34375-7.703125 18.015625-7.703125 28.355469v55.039063c-13.523437 4.546874-43.023437 18.503906-50.371094 55.242187-.914062 4.5625 2.042969 9 6.605469 9.914063 4.578125.894531 8.996094-2.046876 9.910156-6.605469 7.179688-35.902344 42.460938-43.625 43.929688-43.929688 3.9375-.785156 6.769531-4.246093 6.769531-8.257812v-61.402344c0-21.871094 17.792969-39.664063 39.664063-39.664063 1.347656 0 2.449218 1.09375 2.449218 2.445313v152.902344zm0 0" data-original="#000000" class="active-path" data-old_color="#FCFCFC" fill="#FDFDFD"/><path d="m283.628906 283.835938h-38.042968c-3.625 0-6.84375 2.320312-7.988282 5.757812l-8.644531 25.933594-16.148437-51.078125c-1.335938-4.214844-5.730469-6.691407-10.003907-5.648438l-27.46875 6.613281-14.398437-43.199218c-1.113282-3.34375-4.195313-5.640625-7.71875-5.753906-3.367188-.085938-6.738282 1.980468-8.074219 5.242187l-27.429687 67.421875-16.105469-34.152344c-1.324219-2.808594-4.089844-4.664062-7.195313-4.816406-3.09375-.226562-6.046875 1.414062-7.640625 4.078125l-25.269531 42.113281c-2.394531 3.988282-1.101562 9.164063 2.886719 11.554688 3.984375 2.394531 9.160156 1.101562 11.554687-2.886719l17.15625-28.59375 17.570313 37.246094c1.421875 3.015625 4.324219 4.996093 7.847656 4.820312 3.339844-.089843 6.3125-2.148437 7.570313-5.242187l26.074218-64.089844 9.636719 28.917969c1.386719 4.152343 5.730469 6.542969 9.960937 5.523437l27.351563-6.582031 21.601563 68.3125c1.101562 3.480469 4.320312 5.851563 7.964843 5.882813h.066407c3.625 0 6.84375-2.320313 7.992187-5.757813l14.921875-44.777344h31.976562c4.648438 0 8.421876-3.769531 8.421876-8.421875 0-4.648437-3.773438-8.417968-8.425782-8.417968zm0 0" data-original="#000000" class="active-path" data-old_color="#FCFCFC" fill="#FDFDFD"/></g> </svg>
