<?xml version="1.0"?>
<svg xmlns="http://www.w3.org/2000/svg" xmlns:xlink="http://www.w3.org/1999/xlink" version="1.1" id="Joint" x="0px" y="0px" width="512px" height="512px" viewBox="0 0 144.083 144" enable-background="new 0 0 144.083 144" xml:space="preserve" class=""><g><path d="M64.342,79.699c0.265-3.192-0.871-6.816-4.689-10.635c-6.662-6.664-14.37-6.297-21.702,1.037  c-6.788,6.788-3.2,13.677-0.616,17.286c-2.85,4.363-10.175,13.536-11.296,14.693l4.242,4.242  c1.253-1.253,11.423-13.917,13.354-17.824c0.516-1.044,0.381-2.293-0.346-3.202c-3.952-4.943-4.238-7.81-1.095-10.953  c2.653-2.653,5.107-4.017,7.293-4.053c1.908-0.014,3.863,0.955,5.924,3.016c3.607,3.608,3.897,6.434,1.033,10.079  c-0.938,1.194-0.836,2.901,0.238,3.975c1.073,1.073,2.781,1.177,3.975,0.237c3.646-2.863,6.471-2.574,10.079,1.033  c2.061,2.062,3.047,3.999,3.016,5.924c-0.036,2.187-1.399,4.641-4.053,7.294c-3.143,3.143-6.01,2.856-10.953-1.095  c-0.91-0.727-2.158-0.859-3.201-0.347c-3.907,1.93-16.572,12.1-17.825,13.354l4.236,4.249c1.163-1.127,10.337-8.453,14.7-11.302  c3.609,2.583,10.5,6.17,17.286-0.617c3.793-3.792,5.747-7.641,5.81-11.438c0.059-3.586-1.547-7.039-4.772-10.265  C71.158,80.569,67.527,79.427,64.342,79.699z" data-original="#000000" class="active-path" data-old_color="#000000" fill="#676767"/><path d="M118.043,41.919l-4.242-4.242c-1.254,1.253-11.424,13.92-13.352,17.826c-0.516,1.043-0.381,2.291,0.346,3.2  c3.951,4.943,4.238,7.809,1.096,10.952c-6.266,6.265-10.057,4.201-13.219,1.039c-3.607-3.608-3.896-6.436-1.031-10.081  c0.938-1.194,0.836-2.901-0.238-3.975s-2.781-1.176-3.975-0.237c-3.646,2.865-6.473,2.576-10.08-1.032  c-2.061-2.061-3.047-3.999-3.015-5.924c0.036-2.186,1.399-4.641,4.053-7.294c3.144-3.143,6.009-2.857,10.952,1.096  c0.908,0.727,2.158,0.863,3.201,0.347c3.908-1.93,16.572-12.101,17.824-13.354l-4.236-4.249  c-1.162,1.127-10.336,8.453-14.697,11.303c-3.609-2.584-10.498-6.174-17.286,0.615c-7.333,7.333-7.702,15.04-1.038,21.703  c3.819,3.82,7.445,4.949,10.635,4.689c-0.265,3.192,0.871,6.816,4.689,10.636c3.164,3.164,6.563,4.742,10.047,4.742  c3.852,0,7.807-1.931,11.656-5.781c6.787-6.788,3.199-13.677,0.615-17.286C109.598,52.25,116.922,43.077,118.043,41.919z" data-original="#000000" class="active-path" data-old_color="#000000" fill="#676767"/><rect x="52.676" y="53.045" transform="matrix(0.7071 0.7071 -0.7071 0.7071 56.0877 -23.3075)" width="7" height="6" data-original="#000000" class="active-path" data-old_color="#000000" fill="#676767"/><rect x="82.376" y="82.744" transform="matrix(-0.707 -0.7072 0.7072 -0.707 85.9567 207.0967)" width="7" height="5.999" data-original="#000000" class="active-path" data-old_color="#000000" fill="#676767"/><rect x="62.576" y="62.945" transform="matrix(0.7071 0.7071 -0.7071 0.7071 65.9878 -27.4079)" width="7" height="6" data-original="#000000" class="active-path" data-old_color="#000000" fill="#676767"/><rect x="72.476" y="72.844" transform="matrix(-0.707 -0.7072 0.7072 -0.707 76.0587 183.1974)" width="7" height="6.001" data-original="#000000" class="active-path" data-old_color="#000000" fill="#676767"/></g> </svg>
